<?xml version="1.0" standalone="no"?><!DOCTYPE svg PUBLIC "-//W3C//DTD SVG 1.1//EN" "http://www.w3.org/Graphics/SVG/1.1/DTD/svg11.dtd"><svg width="100%" height="100%" viewBox="0 0 900 400" version="1.1" xmlns="http://www.w3.org/2000/svg" xmlns:xlink="http://www.w3.org/1999/xlink" xml:space="preserve" style="fill-rule:evenodd;clip-rule:evenodd;stroke-linejoin:round;stroke-miterlimit:1.41421;"><path d="M400.336,400.046l-87.849,0l0,-143.807l-43.094,0l-100.717,143.807l-99.039,0l103.517,-148.285l3.361,0c-16.795,-3.729 -31.145,-9.696 -43.085,-17.912c-11.936,-8.194 -21.733,-17.904 -29.384,-29.095c-7.641,-11.181 -13.333,-23.407 -17.062,-36.648c-3.738,-13.237 -5.595,-26.579 -5.595,-40.009c0,-16.046 2.505,-31.798 7.554,-47.283c5.025,-15.476 13.154,-29.186 24.344,-41.131c11.187,-11.936 25.646,-21.54 43.361,-28.818c17.72,-7.269 39.081,-10.911 64.065,-10.911l179.623,0l0,400.092ZM430.842,-0.046l400,0l0,400l-400,0l0,-400ZM671.025,37.534l-80.348,0l0,92.832l-80.403,-46.419l-40.176,69.582l80.403,46.418l-80.403,46.413l40.176,69.582l80.403,-46.418l0,92.84l80.348,0l0,-92.84l80.394,46.418l40.176,-69.582l-80.412,-46.413l80.412,-46.418l-40.176,-69.582l-80.394,46.428l0,-92.841ZM214.561,70.18c-9.32,1.31 -17.43,4.105 -24.336,8.395c-6.896,4.294 -12.4,10.345 -16.515,18.179c-4.092,7.83 -6.161,18.285 -6.161,31.343c0,12.685 2.069,22.942 6.161,30.777c4.115,7.825 9.619,13.981 16.515,18.46c6.906,4.482 15.016,7.475 24.336,8.951c9.329,1.499 19.218,2.244 29.66,2.244l68.266,0l0,-120.308l-68.266,0c-10.442,0 -20.331,0.657 -29.66,1.959ZM857.715,-0.027c-11.444,0 -20.713,9.273 -20.717,20.712c0.004,11.444 9.273,20.718 20.717,20.718c11.444,0 20.717,-9.274 20.717,-20.718c0,-11.439 -9.273,-20.712 -20.717,-20.712ZM857.715,38.051c-9.582,-0.023 -17.343,-7.775 -17.356,-17.366c0.013,-9.577 7.774,-17.338 17.356,-17.351c9.586,0.013 17.338,7.774 17.352,17.351c-0.014,9.591 -7.766,17.343 -17.352,17.366ZM858.303,9.311c2.313,0 3.996,0.193 5.04,0.583c1.052,0.387 1.889,1.076 2.519,2.079c0.635,0.993 0.943,2.128 0.943,3.402c0,1.628 -0.474,2.965 -1.43,4.018c-0.957,1.067 -2.382,1.729 -4.285,2.005c0.947,0.552 1.728,1.154 2.344,1.816c0.617,0.657 1.444,1.825 2.488,3.517l2.639,4.221l-5.228,0l-3.154,-4.717c-1.122,-1.678 -1.889,-2.736 -2.303,-3.177c-0.409,-0.442 -0.851,-0.731 -1.31,-0.901c-0.465,-0.161 -1.2,-0.24 -2.207,-0.24l-0.879,0l0,9.035l-4.367,0l0,-21.641l9.19,0ZM856.708,18.465c2.097,0 3.402,-0.097 3.926,-0.267c0.525,-0.184 0.934,-0.483 1.228,-0.915c0.29,-0.437 0.437,-0.979 0.437,-1.623c0,-0.736 -0.189,-1.315 -0.575,-1.766c-0.395,-0.445 -0.938,-0.731 -1.646,-0.845c-0.358,-0.046 -1.416,-0.074 -3.191,-0.074l-3.407,0l0,5.49l3.228,0Z" style="fill:#ee3427;"/></svg>