<?xml version="1.0" standalone="no"?>
<!DOCTYPE svg PUBLIC "-//W3C//DTD SVG 20010904//EN"
 "http://www.w3.org/TR/2001/REC-SVG-20010904/DTD/svg10.dtd">
<svg version="1.0" xmlns="http://www.w3.org/2000/svg"
 width="500.000000pt" height="500.000000pt" viewBox="0 0 500.000000 500.000000"
 preserveAspectRatio="xMidYMid meet">
<metadata>
Created by potrace 1.11, written by Peter Selinger 2001-2013
</metadata>
<g transform="translate(0.000000,500.000000) scale(0.100000,-0.100000)"
fill="#000000" stroke="none">
<path d="M0 2500 l0 -2500 2500 0 2500 0 0 2500 0 2500 -2500 0 -2500 0 0
-2500z m2990 1987 c3 -10 5 -268 4 -573 0 -477 2 -554 14 -549 8 3 175 98 371
212 592 343 631 366 635 362 4 -5 73 -126 108 -189 14 -25 50 -88 80 -140 166
-288 291 -514 292 -527 1 -9 -80 -62 -219 -144 -121 -71 -226 -132 -234 -136
-55 -26 -537 -310 -539 -317 -3 -8 312 -196 329 -196 5 0 9 -4 9 -10 0 -5 4
-10 9 -10 5 0 154 -84 330 -186 255 -148 320 -190 316 -203 -3 -10 -61 -114
-128 -233 -68 -118 -127 -222 -131 -229 -4 -8 -12 -23 -19 -34 -7 -11 -55 -96
-107 -188 -52 -92 -97 -167 -101 -167 -4 0 -110 60 -235 133 -126 74 -249 145
-274 159 -85 48 -245 141 -282 164 -21 13 -40 24 -42 24 -3 0 -42 22 -88 50
-46 27 -86 50 -89 50 -3 0 -5 -257 -5 -570 1 -373 -2 -570 -9 -571 -27 -3
-973 -4 -990 -1 -20 3 -20 10 -20 573 0 451 -2 568 -12 565 -7 -3 -142 -80
-300 -172 -159 -92 -302 -175 -318 -184 -17 -9 -85 -49 -152 -88 -223 -130
-235 -135 -244 -121 -5 8 -53 91 -106 184 -53 94 -159 280 -235 414 -76 134
-137 249 -135 255 3 6 81 54 173 108 93 53 248 142 344 198 96 56 216 125 265
153 50 29 97 56 107 62 9 5 39 23 67 39 l52 30 -28 17 c-24 14 -842 489 -955
554 -34 19 -36 23 -24 41 7 10 26 43 42 72 16 29 34 61 39 70 16 26 104 182
133 232 13 25 42 74 62 110 21 36 48 83 60 105 37 66 143 250 146 254 2 2 62
-31 134 -73 73 -42 136 -76 141 -76 5 0 9 -4 9 -10 0 -5 4 -10 9 -10 5 0 167
-92 362 -205 194 -112 355 -203 358 -200 3 2 6 257 6 567 0 537 0 563 18 568
10 3 237 5 505 5 461 0 487 -1 492 -18z"/>
</g>
</svg>
